<svg width="24" height="22" viewBox="0 0 24 22" fill="none" xmlns="http://www.w3.org/2000/svg">
<path d="M0.569989 9.10097C0.141098 9.44892 0.0754837 10.0787 0.423436 10.5076C0.771388 10.9365 1.40114 11.0021 1.83004 10.6541L0.569989 9.10097ZM22.17 10.6541C22.5989 11.0021 23.2286 10.9365 23.5766 10.5076C23.9245 10.0787 23.8589 9.44892 23.43 9.10097L22.17 10.6541ZM11.3783 1.62009L10.7483 0.843509V0.84351L11.3783 1.62009ZM12.6217 1.62009L13.2518 0.84351L12.6217 1.62009ZM5.80001 7.93047V6.93047H3.80001V7.93047H5.80001ZM20.2 7.93047V6.93047H18.2V7.93047H20.2ZM1.83004 10.6541L12.0083 2.39666L10.7483 0.84351L0.569989 9.10097L1.83004 10.6541ZM11.9917 2.39666L22.17 10.6541L23.43 9.10097L13.2518 0.84351L11.9917 2.39666ZM12.0083 2.39666C12.0072 2.39754 12.0053 2.39866 12.0033 2.39937C12.0016 2.39995 12.0006 2.40002 12 2.40002C11.9995 2.40002 11.9984 2.39995 11.9967 2.39937C11.9947 2.39866 11.9928 2.39754 11.9917 2.39666L13.2518 0.84351C12.5229 0.252196 11.4771 0.252196 10.7483 0.843509L12.0083 2.39666ZM3.80001 7.93047V19.6265H5.80001V7.93047H3.80001ZM5.78183 21.6H18.2182V19.6H5.78183V21.6ZM20.2 19.6265V7.93047H18.2V19.6265H20.2ZM18.2182 21.6C19.3047 21.6 20.2 20.7244 20.2 19.6265H18.2C18.2 19.6234 18.2008 19.6182 18.203 19.6131C18.2049 19.6086 18.207 19.6061 18.2083 19.6048C18.2096 19.6035 18.2113 19.6023 18.2136 19.6013C18.2166 19.6001 18.2187 19.6 18.2182 19.6V21.6ZM3.80001 19.6265C3.80001 20.7244 4.6953 21.6 5.78183 21.6V19.6C5.78128 19.6 5.78346 19.6001 5.78642 19.6013C5.78874 19.6023 5.7904 19.6035 5.79169 19.6048C5.79298 19.6061 5.79508 19.6086 5.79698 19.6131C5.79918 19.6182 5.80001 19.6234 5.80001 19.6265H3.80001Z" fill="white"/>
</svg>
