<svg width="24" height="24" viewBox="0 0 24 24" fill="none" xmlns="http://www.w3.org/2000/svg">
<path d="M0.5 22.5C0.5 23.0523 0.947715 23.5 1.5 23.5C2.05228 23.5 2.5 23.0523 2.5 22.5H0.5ZM21.5 22.5C21.5 23.0523 21.9477 23.5 22.5 23.5C23.0523 23.5 23.5 23.0523 23.5 22.5H21.5ZM2.5 22.5C2.5 19.9512 3.298 17.974 4.63598 16.636C5.97396 15.298 7.95123 14.5 10.5 14.5V12.5C7.52577 12.5 5.00304 13.4405 3.22177 15.2218C1.4405 17.003 0.5 19.5258 0.5 22.5H2.5ZM10.5 14.5H13.5V12.5H10.5V14.5ZM13.5 14.5C16.0488 14.5 18.026 15.298 19.364 16.636C20.702 17.974 21.5 19.9512 21.5 22.5H23.5C23.5 19.5258 22.5595 17.003 20.7782 15.2218C18.997 13.4405 16.4742 12.5 13.5 12.5V14.5ZM17 7.5C17 10.2614 14.7614 12.5 12 12.5V14.5C15.866 14.5 19 11.366 19 7.5H17ZM12 12.5C9.23858 12.5 7 10.2614 7 7.5H5C5 11.366 8.13401 14.5 12 14.5V12.5ZM7 7.5C7 4.73858 9.23858 2.5 12 2.5V0.5C8.13401 0.5 5 3.63401 5 7.5H7ZM12 2.5C14.7614 2.5 17 4.73858 17 7.5H19C19 3.63401 15.866 0.5 12 0.5V2.5Z" fill="white"/>
</svg>
