<svg width="24" height="24" viewBox="0 0 24 24" fill="none" xmlns="http://www.w3.org/2000/svg">
<path d="M3 5C3.55228 5 4 4.55228 4 4C4 3.44772 3.55228 3 3 3C2.44772 3 2 3.44772 2 4C2 4.55228 2.44772 5 3 5Z" fill="#D0722A" stroke="#D0722A" stroke-linecap="round" stroke-linejoin="round"/>
<path d="M3 13C3.55228 13 4 12.5523 4 12C4 11.4477 3.55228 11 3 11C2.44772 11 2 11.4477 2 12C2 12.5523 2.44772 13 3 13Z" fill="#D0722A" stroke="#D0722A" stroke-linecap="round" stroke-linejoin="round"/>
<path d="M3 21C3.55228 21 4 20.5523 4 20C4 19.4477 3.55228 19 3 19C2.44772 19 2 19.4477 2 20C2 20.5523 2.44772 21 3 21Z" fill="#D0722A" stroke="#D0722A" stroke-linecap="round" stroke-linejoin="round"/>
<path d="M8 4H22" stroke="#D0722A" stroke-width="2" stroke-linecap="round" stroke-linejoin="round"/>
<path d="M8 12H22" stroke="#D0722A" stroke-width="2" stroke-linecap="round" stroke-linejoin="round"/>
<path d="M8 20H22" stroke="#D0722A" stroke-width="2" stroke-linecap="round" stroke-linejoin="round"/>
</svg>
